<svg width="26" height="11" viewBox="0 0 26 11" fill="none" xmlns="http://www.w3.org/2000/svg">
<path d="M12.0818 7.95592H11.1831V0.962839H13.5656C14.1695 0.962839 14.6843 1.16411 15.1056 1.56666C15.5362 1.96921 15.7515 2.46069 15.7515 3.04111C15.7515 3.63556 15.5362 4.12705 15.1056 4.52491C14.689 4.92278 14.1741 5.11937 13.5656 5.11937H12.0818V7.95592ZM12.0818 1.8241V4.26279H13.5844C13.9401 4.26279 14.2397 4.14109 14.4737 3.90237C14.7124 3.66365 14.8341 3.37344 14.8341 3.04579C14.8341 2.72281 14.7124 2.43729 14.4737 2.19857C14.2397 1.95048 13.9448 1.82878 13.5844 1.82878H12.0818V1.8241Z" fill="#3C4043"/>
<path d="M18.1012 3.01302C18.7659 3.01302 19.2901 3.19089 19.6739 3.54663C20.0578 3.90237 20.2497 4.38917 20.2497 5.00703V7.95592H19.3931V7.29125H19.3556C18.9859 7.8389 18.4897 8.11039 17.8718 8.11039C17.3429 8.11039 16.9029 7.95592 16.5472 7.64231C16.1915 7.3287 16.0136 6.94019 16.0136 6.47212C16.0136 5.97595 16.2008 5.58277 16.5753 5.29256C16.9497 4.99767 17.4506 4.85257 18.0731 4.85257C18.6067 4.85257 19.0467 4.95086 19.3884 5.14746V4.9415C19.3884 4.62789 19.2667 4.36576 19.0186 4.14577C18.7705 3.92577 18.4803 3.81811 18.148 3.81811C17.6472 3.81811 17.2493 4.02875 16.9591 4.4547L16.168 3.95854C16.6034 3.32663 17.2493 3.01302 18.1012 3.01302ZM16.9404 6.48616C16.9404 6.7202 17.0387 6.91679 17.2399 7.07125C17.4365 7.22572 17.6706 7.30529 17.9374 7.30529C18.3165 7.30529 18.6535 7.16487 18.9484 6.88402C19.2433 6.60318 19.3931 6.27552 19.3931 5.89638C19.1122 5.67638 18.7237 5.56404 18.2229 5.56404C17.8578 5.56404 17.5536 5.65298 17.3102 5.82617C17.0621 6.00872 16.9404 6.22871 16.9404 6.48616Z" fill="#3C4043"/>
<path d="M25.1364 3.16753L22.1407 10.0576H21.2139L22.328 7.64704L20.3527 3.16753H21.331L22.7539 6.60322H22.7726L24.1581 3.16753H25.1364Z" fill="#3C4043"/>
<path d="M8.50709 4.553C8.50709 4.25998 8.48087 3.9796 8.43219 3.70999H4.66512V5.25465L6.83465 5.25512C6.74665 5.76907 6.46347 6.20719 6.02956 6.49927V7.50142H7.32098C8.07505 6.80352 8.50709 5.77187 8.50709 4.553Z" fill="#4285F4"/>
<path d="M6.03002 6.49931C5.67054 6.74178 5.20761 6.88361 4.66605 6.88361C3.6199 6.88361 2.73243 6.17868 2.4146 5.22848H1.08246V6.262C1.74245 7.57168 3.09893 8.47039 4.66605 8.47039C5.74917 8.47039 6.65911 8.11418 7.32144 7.501L6.03002 6.49931Z" fill="#34A853"/>
<path d="M2.28912 4.46171C2.28912 4.19491 2.33359 3.937 2.41456 3.69454V2.66102H1.08242C0.809534 3.20259 0.656006 3.8139 0.656006 4.46171C0.656006 5.10953 0.810002 5.72084 1.08242 6.26241L2.41456 5.2289C2.33359 4.98643 2.28912 4.72852 2.28912 4.46171Z" fill="#FABB05"/>
<path d="M4.66605 2.03942C5.25723 2.03942 5.78662 2.24303 6.20461 2.6409L7.34906 1.49739C6.65396 0.850035 5.74777 0.452637 4.66605 0.452637C3.0994 0.452637 1.74241 1.35134 1.08242 2.66102L2.41456 3.69454C2.73239 2.74434 3.6199 2.03942 4.66605 2.03942Z" fill="#E94235"/>
</svg>
