<svg width="23" height="14" viewBox="0 0 23 14" fill="none" xmlns="http://www.w3.org/2000/svg">
<path d="M14.0917 1.58446H8.2086V12.1565H14.0917V1.58446Z" fill="#FF5F00"/>
<path d="M8.58218 6.87047C8.58125 5.85231 8.81197 4.84728 9.25688 3.93147C9.70179 3.01565 10.3492 2.21307 11.1502 1.58446C10.1583 0.804839 8.96712 0.320005 7.71274 0.185372C6.45837 0.0507394 5.19142 0.271735 4.05671 0.82311C2.922 1.37448 1.96531 2.23399 1.29599 3.30338C0.626669 4.37277 0.271729 5.60889 0.271729 6.87047C0.271729 8.13205 0.626669 9.36818 1.29599 10.4376C1.96531 11.507 2.922 12.3665 4.05671 12.9178C5.19142 13.4692 6.45837 13.6902 7.71274 13.5556C8.96712 13.4209 10.1583 12.9361 11.1502 12.1565C10.3492 11.5279 9.7018 10.7253 9.25689 9.80947C8.81198 8.89366 8.58125 7.88863 8.58218 6.87047Z" fill="#EB001B"/>
<path d="M22.0283 6.87047C22.0283 8.13203 21.6734 9.36815 21.0041 10.4375C20.3348 11.5069 19.3782 12.3664 18.2435 12.9178C17.1088 13.4692 15.8419 13.6902 14.5875 13.5556C13.3332 13.4209 12.142 12.9361 11.1502 12.1565C11.9504 11.5272 12.5973 10.7245 13.0422 9.80886C13.487 8.89319 13.7181 7.88847 13.7181 6.87047C13.7181 5.85247 13.487 4.84775 13.0422 3.93209C12.5973 3.01642 11.9504 2.2137 11.1502 1.58446C12.142 0.804838 13.3332 0.320002 14.5875 0.185371C15.8419 0.0507393 17.1088 0.271745 18.2435 0.823125C19.3782 1.37451 20.3348 2.23401 21.0041 3.3034C21.6734 4.37279 22.0283 5.60891 22.0283 6.87047Z" fill="#F79E1B"/>
<path d="M21.3868 11.0367V10.8203H21.4741V10.7762H21.2518V10.8203H21.3391V11.0367H21.3868ZM21.8183 11.0367V10.7758H21.7502L21.6718 10.9553L21.5934 10.7758H21.5253V11.0367H21.5734V10.8399L21.6469 11.0096H21.6968L21.7702 10.8395V11.0367H21.8183Z" fill="#F79E1B"/>
</svg>
